<svg width="187" height="200" viewBox="0 0 187 200" fill="none" xmlns="http://www.w3.org/2000/svg">
<path d="M74.0142 10.9244C73.4699 5.06166 78.0834 0 83.9713 0H103.302C109.181 0 113.792 5.048 113.261 10.9035L105.282 98.8487C105.228 99.4483 105.227 100.052 105.282 100.651L113.266 189.101C113.795 194.955 109.184 200 103.307 200H83.9663C78.0802 200 73.4673 194.941 74.0087 189.08L82.175 100.672C82.2317 100.059 82.2315 99.4413 82.1746 98.8279L74.0142 10.9244Z" fill="#9356AF"/>
<path d="M6.67782 72.4457C1.32843 69.9856 -0.748327 63.4594 2.19563 58.3603L11.8608 41.6197C14.8006 36.5279 21.4777 35.0588 26.2831 38.4467L98.4565 89.3291C98.9486 89.676 99.471 89.9778 100.017 90.2307L180.609 127.541C185.943 130.01 188.007 136.525 185.068 141.615L175.398 158.365C172.455 163.462 165.768 164.928 160.963 161.528L88.4821 110.252C87.9792 109.896 87.4445 109.588 86.8848 109.33L6.67782 72.4457Z" fill="#9356AF"/>
<path d="M160.961 38.4787C165.766 35.076 172.457 36.5406 175.401 41.6397L185.066 58.3803C188.006 63.4721 185.939 69.9892 180.603 72.4569L100.451 109.52C99.9041 109.772 99.3815 110.074 98.8893 110.421L26.2819 161.56C21.4764 164.945 14.8022 163.475 11.8633 158.385L2.1931 141.635C-0.749942 136.538 1.32453 130.014 6.67112 127.552L87.318 90.4201C87.8775 90.1624 88.4121 89.8536 88.9148 89.4976L160.961 38.4787Z" fill="#9356AF"/>
</svg>
