<svg width="100" height="100" viewBox="0 0 100 100" fill="none" xmlns="http://www.w3.org/2000/svg">
<rect width="100" height="100" rx="8" fill="white"/>
<path d="M14.5 29.5087V29.7801L14.7275 29.928L49.7275 52.678L50 52.8551L50.2725 52.678L85.2725 29.928L85.5 29.7801V29.5087V28.3333C85.5 26.7765 84.9295 25.2761 83.9029 24.164C82.8751 23.0506 81.4722 22.4167 80 22.4167H20C18.5278 22.4167 17.1249 23.0506 16.0971 24.164C15.0705 25.2761 14.5 26.7765 14.5 28.3333V29.5087ZM85.5 35.8246V34.9032L84.7275 35.4054L61.1875 50.7075L60.5507 51.1214L61.1827 51.5427L84.7227 67.2348L85.5 67.753V66.8187V35.8246ZM85.3154 73.1897L85.3998 72.8485L85.1074 72.6536L56.9074 53.8523L56.6336 53.6698L56.3577 53.849L50 57.9784L43.6423 53.849L43.3664 53.6698L43.0927 53.8523L14.8927 72.6481L14.6005 72.8429L14.6845 73.1838C14.993 74.4352 15.6759 75.5485 16.6351 76.3467C17.5952 77.1456 18.7779 77.5831 19.9999 77.5833H20H80C81.2213 77.5835 82.4034 77.1468 83.3634 76.3491C84.3226 75.552 85.0059 74.44 85.3154 73.1897ZM14.5 66.8187V67.753L15.2773 67.2348L38.8173 51.5427L39.4493 51.1214L38.8125 50.7075L15.2725 35.4054L14.5 34.9032V35.8246V66.8187ZM10.5 28.3333C10.5 25.5804 11.5098 22.9475 13.2963 21.0121C15.0816 19.0781 17.4939 18 20 18H80C82.5061 18 84.9184 19.0781 86.7037 21.0121C88.4902 22.9475 89.5 25.5804 89.5 28.3333V71.6667C89.5 74.4196 88.4902 77.0525 86.7037 78.9878C84.9184 80.9219 82.5061 82 80 82H20C17.4939 82 15.0816 80.9219 13.2963 78.9878C11.5098 77.0525 10.5 74.4196 10.5 71.6667V28.3333Z" fill="black" stroke="#121212"/>
</svg>
