<svg width="100" height="100" viewBox="0 0 100 100" fill="none" xmlns="http://www.w3.org/2000/svg">
<g clip-path="url(#clip0_79_24)">
<path d="M30.8937 84.2125H31.3937V83.7125V38.5563V38.0563H30.8937H15.8875H15.3875V38.5563V83.7125V84.2125H15.8875H30.8937ZM32.3812 24.5875H32.3814L32.3811 24.5769C32.3318 22.2431 31.4736 20.1632 29.9266 18.6664C28.3786 17.1688 26.1749 16.2875 23.4937 16.2875C20.8138 16.2875 18.5625 17.1694 16.9773 18.6644C15.3911 20.1602 14.5 22.244 14.5 24.5875C14.5 29.2129 17.9921 32.8875 23.2938 32.8875H23.3937C26.1223 32.8875 28.3733 31.9826 29.9453 30.4749C31.517 28.9676 32.3812 26.8847 32.3812 24.5875ZM54.0687 84.2125H54.5687V83.7125V58.4938C54.5687 57.1465 54.6721 55.8855 55.0305 55.0231L55.0305 55.0231L55.0328 55.0175C56.0663 52.4426 58.3897 49.8438 62.2688 49.8438C64.837 49.8438 66.5739 50.8106 67.6922 52.4532C68.8322 54.1279 69.3688 56.564 69.3688 59.5563V83.7125V84.2125H69.8688H84.875H85.375V83.7125V57.8125C85.375 50.7891 83.5013 45.5727 80.3083 42.108C77.1116 38.6393 72.6488 36.9875 67.6 36.9875C63.5195 36.9875 60.537 38.1109 58.3139 39.649C56.6958 40.7686 55.4943 42.0981 54.5687 43.3427V38.5563V38.0563H54.0687H39.0687H38.5461L38.5692 38.5784C38.6623 40.6819 38.6625 51.9528 38.6391 62.7224C38.6273 68.1017 38.6098 73.3487 38.5951 77.2509C38.5878 79.2019 38.5812 80.8168 38.5764 81.9439L38.5708 83.2497L38.5693 83.5927L38.5689 83.6806L38.5688 83.7028L38.5688 83.7083L38.5688 83.7097C38.5688 83.7101 38.5688 83.7102 39.0687 83.7125L38.5688 83.7102L38.5665 84.2125H39.0687H54.0687ZM0.5 7.1625C0.5 3.4941 3.55178 0.5 7.34375 0.5H92.6562C96.4482 0.5 99.5 3.4941 99.5 7.1625V92.8375C99.5 96.5059 96.4482 99.5 92.6562 99.5H7.34375C3.55178 99.5 0.5 96.5059 0.5 92.8375V7.1625Z" fill="white" stroke="white"/>
</g>
<defs>
<clipPath id="clip0_79_24">
<rect width="100" height="100" fill="white"/>
</clipPath>
</defs>
</svg>
