<svg width="47" height="10" viewBox="0 0 47 10" fill="none" xmlns="http://www.w3.org/2000/svg">
<path d="M0.958807 9V0.272727H4.0696C4.74858 0.272727 5.31108 0.396307 5.7571 0.643466C6.20313 0.890625 6.53693 1.22869 6.75852 1.65767C6.98011 2.08381 7.09091 2.56392 7.09091 3.09801C7.09091 3.63494 6.97869 4.1179 6.75426 4.54688C6.53267 4.97301 6.19744 5.31108 5.74858 5.56108C5.30256 5.80824 4.74148 5.93182 4.06534 5.93182H1.92614V4.81534H3.94602C4.375 4.81534 4.72301 4.74148 4.99006 4.59375C5.2571 4.44318 5.45312 4.23864 5.57812 3.98011C5.70312 3.72159 5.76562 3.42756 5.76562 3.09801C5.76562 2.76847 5.70312 2.47585 5.57812 2.22017C5.45312 1.96449 5.25568 1.7642 4.9858 1.61932C4.71875 1.47443 4.36648 1.40199 3.92898 1.40199H2.27557V9H0.958807ZM8.63459 9V0.272727H14.1062V1.40625H9.95135V4.06534H13.8207V5.1946H9.95135V7.86648H14.1573V9H8.63459ZM15.8651 9V0.272727H21.3366V1.40625H17.1818V4.06534H21.0511V5.1946H17.1818V7.86648H21.3878V9H15.8651ZM23.0955 9V0.272727H26.2063C26.8825 0.272727 27.4435 0.389204 27.8896 0.622159C28.3384 0.855113 28.6737 1.17756 28.8952 1.58949C29.1168 1.99858 29.2276 2.47159 29.2276 3.00852C29.2276 3.54261 29.1154 4.01278 28.891 4.41903C28.6694 4.82244 28.3342 5.13636 27.8853 5.3608C27.4393 5.58523 26.8782 5.69744 26.2021 5.69744H23.8455V4.56392H26.0827C26.5089 4.56392 26.8555 4.50284 27.1225 4.38068C27.3924 4.25852 27.5898 4.08097 27.7148 3.84801C27.8398 3.61506 27.9023 3.33523 27.9023 3.00852C27.9023 2.67898 27.8384 2.39347 27.7106 2.15199C27.5856 1.91051 27.3881 1.72585 27.1183 1.59801C26.8512 1.46733 26.5004 1.40199 26.0657 1.40199H24.4123V9H23.0955ZM27.4038 5.0625L29.56 9H28.06L25.9464 5.0625H27.4038Z" fill="black"/>
<path d="M37.3977 0.272727H38.7102V6.46023C38.7102 7.01989 38.5994 7.49858 38.3778 7.89631C38.1591 8.29403 37.8509 8.59801 37.4531 8.80824C37.0554 9.01562 36.5895 9.11932 36.0554 9.11932C35.5639 9.11932 35.1222 9.02983 34.7301 8.85085C34.3409 8.67187 34.0327 8.41193 33.8054 8.07102C33.581 7.72727 33.4688 7.30966 33.4688 6.81818H34.777C34.777 7.05966 34.8324 7.26847 34.9432 7.4446C35.0568 7.62074 35.2116 7.75852 35.4077 7.85795C35.6065 7.95455 35.8338 8.00284 36.0895 8.00284C36.3679 8.00284 36.6037 7.9446 36.7969 7.82812C36.9929 7.70881 37.142 7.53409 37.2443 7.30398C37.3466 7.07386 37.3977 6.79261 37.3977 6.46023V0.272727ZM45.3867 2.56534C45.3413 2.16193 45.1538 1.84943 44.8242 1.62784C44.4947 1.40341 44.0799 1.29119 43.5799 1.29119C43.2219 1.29119 42.9123 1.34801 42.6509 1.46165C42.3896 1.57244 42.1864 1.72585 42.0415 1.92188C41.8995 2.11506 41.8285 2.33523 41.8285 2.58239C41.8285 2.78977 41.8768 2.96875 41.9734 3.11932C42.0728 3.26989 42.2021 3.39631 42.3612 3.49858C42.5231 3.59801 42.6964 3.68182 42.881 3.75C43.0657 3.81534 43.2433 3.86932 43.4137 3.91193L44.266 4.13352C44.5444 4.2017 44.8299 4.29403 45.1225 4.41051C45.4151 4.52699 45.6864 4.6804 45.9364 4.87074C46.1864 5.06108 46.3881 5.29688 46.5415 5.57812C46.6978 5.85938 46.7759 6.19602 46.7759 6.58807C46.7759 7.08239 46.6481 7.52131 46.3924 7.90483C46.1396 8.28835 45.7717 8.59091 45.2887 8.8125C44.8086 9.03409 44.2276 9.14489 43.5458 9.14489C42.8924 9.14489 42.3271 9.04119 41.8498 8.83381C41.3725 8.62642 40.9989 8.33239 40.729 7.9517C40.4592 7.56818 40.31 7.11364 40.2816 6.58807H41.6026C41.6282 6.90341 41.7305 7.16619 41.9094 7.37642C42.0913 7.58381 42.3228 7.73864 42.604 7.84091C42.8881 7.94034 43.1992 7.99006 43.5373 7.99006C43.9094 7.99006 44.2404 7.93182 44.5302 7.81534C44.8228 7.69602 45.0529 7.53125 45.2205 7.32102C45.3881 7.10795 45.4719 6.85937 45.4719 6.57528C45.4719 6.31676 45.3981 6.10511 45.2504 5.94034C45.1055 5.77557 44.908 5.6392 44.658 5.53125C44.4109 5.4233 44.131 5.32812 43.8185 5.24574L42.7873 4.96449C42.0884 4.77415 41.5344 4.49432 41.1254 4.125C40.7191 3.75568 40.516 3.26705 40.516 2.65909C40.516 2.15625 40.6523 1.71733 40.9251 1.34233C41.1978 0.967329 41.5671 0.676136 42.033 0.46875C42.4989 0.258523 43.0245 0.153409 43.6097 0.153409C44.2006 0.153409 44.7219 0.257102 45.1737 0.464489C45.6282 0.671875 45.9862 0.957386 46.2475 1.32102C46.5089 1.68182 46.6452 2.09659 46.6566 2.56534H45.3867Z" fill="#CA6868"/>
</svg>
