<svg width="100" height="100" viewBox="0 0 100 100" fill="none" xmlns="http://www.w3.org/2000/svg">
<g clip-path="url(#clip0_141_12)">
<path fill-rule="evenodd" clip-rule="evenodd" d="M53.975 21.875C53.975 21.0462 53.6458 20.2513 53.0597 19.6653C52.4737 19.0792 51.6788 18.75 50.85 18.75H9.375C6.8886 18.75 4.50403 19.7377 2.74587 21.4959C0.98772 23.254 0 25.6386 0 28.125L0 90.625C0 93.1114 0.98772 95.496 2.74587 97.2541C4.50403 99.0123 6.8886 100 9.375 100H71.875C74.3614 100 76.746 99.0123 78.5041 97.2541C80.2623 95.496 81.25 93.1114 81.25 90.625V49.15C81.25 48.3212 80.9208 47.5263 80.3347 46.9403C79.7487 46.3542 78.9538 46.025 78.125 46.025C77.2962 46.025 76.5013 46.3542 75.9153 46.9403C75.3292 47.5263 75 48.3212 75 49.15V90.625C75 91.4538 74.6708 92.2487 74.0847 92.8347C73.4987 93.4208 72.7038 93.75 71.875 93.75H9.375C8.5462 93.75 7.75134 93.4208 7.16529 92.8347C6.57924 92.2487 6.25 91.4538 6.25 90.625V28.125C6.25 27.2962 6.57924 26.5013 7.16529 25.9153C7.75134 25.3292 8.5462 25 9.375 25H50.85C51.6788 25 52.4737 24.6708 53.0597 24.0847C53.6458 23.4987 53.975 22.7038 53.975 21.875Z" fill="black"/>
<path fill-rule="evenodd" clip-rule="evenodd" d="M90 15.475C90 14.8186 89.7234 14.1891 89.2311 13.7249C88.7389 13.2608 88.0712 13 87.375 13H61.1247C60.4285 13 59.7608 13.2608 59.2685 13.7249C58.7762 14.1891 58.4996 14.8186 58.4996 15.475C58.4996 16.1315 58.7762 16.761 59.2685 17.2252C59.7608 17.6893 60.4285 17.9501 61.1247 17.9501H81.0381L38.2659 58.2734C38.0218 58.5036 37.8282 58.7768 37.6961 59.0774C37.564 59.3781 37.4961 59.7003 37.4961 60.0258C37.4961 60.3512 37.564 60.6735 37.6961 60.9741C37.8282 61.2748 38.0218 61.548 38.2659 61.7781C38.5099 62.0082 38.7997 62.1908 39.1186 62.3153C39.4375 62.4398 39.7792 62.5039 40.1244 62.5039C40.4696 62.5039 40.8113 62.4398 41.1302 62.3153C41.4491 62.1908 41.7389 62.0082 41.9829 61.7781L84.7499 21.4498V40.2255C84.7499 40.8819 85.0265 41.5114 85.5188 41.9756C86.0111 42.4397 86.6788 42.7005 87.375 42.7005C88.0712 42.7005 88.7389 42.4397 89.2311 41.9756C89.7234 41.5114 90 40.8819 90 40.2255V15.475Z" fill="black"/>
</g>
<defs>
<clipPath id="clip0_141_12">
<rect width="100" height="100" fill="white"/>
</clipPath>
</defs>
</svg>
