<svg width="63" height="10" viewBox="0 0 63 10" fill="none" xmlns="http://www.w3.org/2000/svg">
<path d="M0.528409 1.40625V0.272727H7.28267V1.40625H4.55966V9H3.24716V1.40625H0.528409ZM9.34197 9L7.41584 2.45455H8.7326L10.0153 7.26136H10.0792L11.3661 2.45455H12.6829L13.9613 7.24006H14.0252L15.2994 2.45455H16.6161L14.6942 9H13.3945L12.065 4.27415H11.967L10.6374 9H9.34197ZM20.4471 9.1321C19.8022 9.1321 19.2468 8.99432 18.7809 8.71875C18.3178 8.44034 17.9599 8.04972 17.707 7.54688C17.457 7.04119 17.332 6.44886 17.332 5.76989C17.332 5.09943 17.457 4.50852 17.707 3.99716C17.9599 3.4858 18.3121 3.08665 18.7638 2.79972C19.2184 2.51278 19.7496 2.36932 20.3576 2.36932C20.7269 2.36932 21.0849 2.4304 21.4315 2.55256C21.7781 2.67472 22.0891 2.86648 22.3647 3.12784C22.6403 3.3892 22.8576 3.72869 23.0167 4.14631C23.1758 4.56108 23.2553 5.06534 23.2553 5.65909V6.1108H18.0522V5.15625H22.0067C22.0067 4.82102 21.9386 4.52415 21.8022 4.26562C21.6658 4.00426 21.4741 3.7983 21.2269 3.64773C20.9826 3.49716 20.6957 3.42188 20.3661 3.42188C20.0082 3.42188 19.6957 3.50994 19.4286 3.68608C19.1644 3.85937 18.9599 4.08665 18.815 4.3679C18.6729 4.64631 18.6019 4.94886 18.6019 5.27557V6.02131C18.6019 6.45881 18.6786 6.83097 18.832 7.13778C18.9883 7.4446 19.2056 7.67898 19.484 7.84091C19.7624 8 20.0877 8.07955 20.4599 8.07955C20.7013 8.07955 20.9215 8.04545 21.1204 7.97727C21.3192 7.90625 21.4911 7.80114 21.636 7.66193C21.7809 7.52273 21.8917 7.35085 21.9684 7.14631L23.1744 7.36364C23.0778 7.71875 22.9045 8.02983 22.6545 8.29688C22.4073 8.56108 22.0962 8.76705 21.7212 8.91477C21.3491 9.05966 20.9244 9.1321 20.4471 9.1321ZM27.4901 9.1321C26.8452 9.1321 26.2898 8.99432 25.8239 8.71875C25.3608 8.44034 25.0028 8.04972 24.75 7.54688C24.5 7.04119 24.375 6.44886 24.375 5.76989C24.375 5.09943 24.5 4.50852 24.75 3.99716C25.0028 3.4858 25.3551 3.08665 25.8068 2.79972C26.2614 2.51278 26.7926 2.36932 27.4006 2.36932C27.7699 2.36932 28.1278 2.4304 28.4744 2.55256C28.821 2.67472 29.1321 2.86648 29.4077 3.12784C29.6832 3.3892 29.9006 3.72869 30.0597 4.14631C30.2188 4.56108 30.2983 5.06534 30.2983 5.65909V6.1108H25.0952V5.15625H29.0497C29.0497 4.82102 28.9815 4.52415 28.8452 4.26562C28.7088 4.00426 28.517 3.7983 28.2699 3.64773C28.0256 3.49716 27.7386 3.42188 27.4091 3.42188C27.0511 3.42188 26.7386 3.50994 26.4716 3.68608C26.2074 3.85937 26.0028 4.08665 25.858 4.3679C25.7159 4.64631 25.6449 4.94886 25.6449 5.27557V6.02131C25.6449 6.45881 25.7216 6.83097 25.875 7.13778C26.0312 7.4446 26.2486 7.67898 26.527 7.84091C26.8054 8 27.1307 8.07955 27.5028 8.07955C27.7443 8.07955 27.9645 8.04545 28.1634 7.97727C28.3622 7.90625 28.5341 7.80114 28.679 7.66193C28.8239 7.52273 28.9347 7.35085 29.0114 7.14631L30.2173 7.36364C30.1207 7.71875 29.9474 8.02983 29.6974 8.29688C29.4503 8.56108 29.1392 8.76705 28.7642 8.91477C28.392 9.05966 27.9673 9.1321 27.4901 9.1321ZM34.7674 2.45455V3.47727H31.1921V2.45455H34.7674ZM32.1509 0.886364H33.4251V7.07812C33.4251 7.32528 33.462 7.51136 33.5359 7.63636C33.6097 7.75852 33.7049 7.84233 33.8214 7.88778C33.9407 7.9304 34.07 7.9517 34.2092 7.9517C34.3114 7.9517 34.4009 7.9446 34.4776 7.9304C34.5543 7.91619 34.614 7.90483 34.6566 7.89631L34.8867 8.94886C34.8129 8.97727 34.7077 9.00568 34.5714 9.03409C34.435 9.06534 34.2646 9.08239 34.06 9.08523C33.7248 9.09091 33.4123 9.03125 33.1225 8.90625C32.8327 8.78125 32.5984 8.58807 32.4194 8.3267C32.2404 8.06534 32.1509 7.73722 32.1509 7.34233V0.886364Z" fill="#3A3A3A"/>
<path d="M43.3232 0.272727V9H42.1129L37.6768 2.59943H37.5959V9H36.2791V0.272727H37.4979L41.9382 6.68182H42.0192V0.272727H43.3232ZM47.0465 9.14489C46.6317 9.14489 46.2567 9.06818 45.9215 8.91477C45.5863 8.75852 45.3207 8.53267 45.1246 8.23722C44.9315 7.94176 44.8349 7.57955 44.8349 7.15057C44.8349 6.78125 44.9059 6.47727 45.0479 6.23864C45.19 6 45.3817 5.81108 45.6232 5.67188C45.8647 5.53267 46.1346 5.42756 46.4329 5.35653C46.7312 5.28551 47.0352 5.23153 47.3448 5.1946C47.7369 5.14915 48.055 5.11222 48.2994 5.08381C48.5437 5.05256 48.7212 5.00284 48.832 4.93466C48.9428 4.86648 48.9982 4.75568 48.9982 4.60227V4.57244C48.9982 4.20028 48.8931 3.91193 48.6829 3.70739C48.4755 3.50284 48.1658 3.40057 47.7539 3.40057C47.3249 3.40057 46.9869 3.49574 46.7397 3.68608C46.4954 3.87358 46.3263 4.08239 46.2326 4.3125L45.0352 4.03977C45.1772 3.64205 45.3846 3.32102 45.6573 3.0767C45.9329 2.82955 46.2496 2.65057 46.6076 2.53977C46.9656 2.42614 47.342 2.36932 47.7369 2.36932C47.9982 2.36932 48.2752 2.40057 48.5678 2.46307C48.8633 2.52273 49.1388 2.63352 49.3945 2.79545C49.6531 2.95739 49.8647 3.18892 50.0295 3.49006C50.1942 3.78835 50.2766 4.17614 50.2766 4.65341V9H49.0323V8.10511H48.9812C48.8988 8.26989 48.7752 8.43182 48.6104 8.59091C48.4457 8.75 48.234 8.8821 47.9755 8.98722C47.717 9.09233 47.4073 9.14489 47.0465 9.14489ZM47.3235 8.12216C47.6758 8.12216 47.9769 8.05256 48.2269 7.91335C48.4798 7.77415 48.6715 7.59233 48.8022 7.3679C48.9357 7.14062 49.0025 6.89773 49.0025 6.6392V5.79545C48.957 5.84091 48.869 5.88352 48.7383 5.9233C48.6104 5.96023 48.4641 5.9929 48.2994 6.02131C48.1346 6.04687 47.9741 6.07102 47.8178 6.09375C47.6616 6.11364 47.5309 6.13068 47.4258 6.14489C47.1786 6.17614 46.9528 6.22869 46.7482 6.30256C46.5465 6.37642 46.3846 6.48295 46.2624 6.62216C46.1431 6.75852 46.0835 6.94034 46.0835 7.16761C46.0835 7.48295 46.1999 7.72159 46.4329 7.88352C46.6658 8.04261 46.9627 8.12216 47.3235 8.12216ZM59.3246 3.1108H57.995C57.9439 2.8267 57.8487 2.5767 57.7095 2.3608C57.5703 2.14489 57.3999 1.96165 57.1982 1.81108C56.9964 1.66051 56.7706 1.54687 56.5206 1.47017C56.2734 1.39347 56.0107 1.35511 55.7322 1.35511C55.2294 1.35511 54.7791 1.48153 54.3814 1.73438C53.9865 1.98722 53.674 2.35795 53.4439 2.84659C53.2166 3.33523 53.103 3.93182 53.103 4.63636C53.103 5.34659 53.2166 5.94602 53.4439 6.43466C53.674 6.9233 53.9879 7.29261 54.3857 7.54261C54.7834 7.79261 55.2308 7.91761 55.728 7.91761C56.0036 7.91761 56.2649 7.88068 56.5121 7.80682C56.7621 7.73011 56.9879 7.6179 57.1896 7.47017C57.3913 7.32244 57.5618 7.14205 57.701 6.92898C57.843 6.71307 57.9411 6.46591 57.995 6.1875L59.3246 6.19176C59.2536 6.62074 59.1158 7.01562 58.9112 7.37642C58.7095 7.73438 58.4496 8.04403 58.1314 8.3054C57.8161 8.56392 57.4553 8.7642 57.049 8.90625C56.6428 9.0483 56.1996 9.11932 55.7195 9.11932C54.9638 9.11932 54.2905 8.94034 53.6996 8.58239C53.1087 8.22159 52.6428 7.70597 52.3018 7.03551C51.9638 6.36506 51.7947 5.56534 51.7947 4.63636C51.7947 3.70455 51.9652 2.90483 52.3061 2.23722C52.647 1.56676 53.1129 1.05256 53.7038 0.694602C54.2947 0.333807 54.9666 0.153409 55.7195 0.153409C56.1825 0.153409 56.6143 0.22017 57.0149 0.353693C57.4183 0.484375 57.7805 0.677557 58.1016 0.933239C58.4226 1.18608 58.6882 1.49574 58.8984 1.86222C59.1087 2.22585 59.2507 2.64205 59.3246 3.1108ZM62.0721 0.272727V9H60.7979V0.272727H62.0721Z" fill="#5E8495"/>
</svg>
